<svg width="38" height="38" viewBox="0 0 38 38" fill="none" xmlns="http://www.w3.org/2000/svg">
<g filter="url(#filter0_d)">
<path fill-rule="evenodd" clip-rule="evenodd" d="M33 15C33 7.26801 26.732 1 19 1C11.268 1 5 7.26801 5 15C5 22.732 11.268 29 19 29C19.2437 29 19.486 28.9938 19.7266 28.9815C19.816 28.9937 19.9073 29 20 29H31C32.1046 29 33 28.1046 33 27V15Z" fill="#EA6161"/>
</g>
<path d="M10.795 13.1262C10.5397 13.1262 10.3286 13.227 10.1615 13.4287C9.99766 13.6304 9.89208 13.9739 9.84481 14.4593H11.6364C11.6396 14.4278 11.6412 14.3947 11.6412 14.36C11.6412 14.3253 11.6412 14.2859 11.6412 14.2418C11.6412 13.9172 11.5703 13.6509 11.4284 13.4429C11.2898 13.2318 11.0786 13.1262 10.795 13.1262ZM12.9837 16.8229C12.8577 17.2326 12.5992 17.5509 12.2084 17.7778C11.8177 18.0047 11.3434 18.1182 10.7855 18.1182C10.3601 18.1182 9.98978 18.052 9.67463 17.9196C9.36263 17.7873 9.1042 17.6013 8.89936 17.3618C8.69451 17.1223 8.54166 16.8324 8.44081 16.492C8.34311 16.1516 8.29427 15.7735 8.29427 15.3575C8.29427 14.4341 8.5259 13.725 8.98917 13.2302C9.4556 12.7322 10.0985 12.4833 10.9179 12.4833C11.6144 12.4833 12.1375 12.6519 12.4874 12.9891C12.8403 13.3263 13.0168 13.7707 13.0168 14.3222C13.0168 14.4293 13.0105 14.5507 12.9979 14.6862C12.9853 14.8217 12.968 14.943 12.9459 15.0502H9.81645V15.0833C9.81645 15.8333 9.9299 16.3722 10.1568 16.7C10.3837 17.0246 10.7398 17.1869 11.2252 17.1869C11.4994 17.1869 11.7609 17.1349 12.0099 17.0309C12.262 16.9269 12.4669 16.7756 12.6244 16.5771L12.9837 16.8229ZM16.9021 17.3902V18H14.0468V17.3902L14.5857 17.2956C14.6582 17.283 14.715 17.2531 14.7559 17.2058C14.7969 17.1585 14.8174 17.0971 14.8174 17.0215V13.7691C14.8174 13.6935 14.7985 13.632 14.7607 13.5847C14.7228 13.5343 14.6677 13.5028 14.5952 13.4902L13.9901 13.3767V12.7622C14.2958 12.6771 14.6188 12.6125 14.9592 12.5684C15.2996 12.5211 15.6194 12.4959 15.9188 12.4927L16.1316 12.6913L16.2214 13.2255C16.4577 12.9733 16.7288 12.7905 17.0345 12.6771C17.3433 12.5605 17.6711 12.5022 18.0177 12.5022C18.6481 12.5022 19.0782 12.6818 19.3083 13.0411C19.5415 13.3972 19.6581 13.8999 19.6581 14.5491V17.0215C19.6581 17.1002 19.6786 17.1633 19.7196 17.2105C19.7605 17.2547 19.8173 17.283 19.8897 17.2956L20.4287 17.3902V18H17.5734V17.3902L17.9563 17.3004C18.0288 17.2783 18.0839 17.2468 18.1217 17.2058C18.1627 17.1617 18.1832 17.1002 18.1832 17.0215V14.7382C18.1832 14.2686 18.1154 13.9298 17.9799 13.7218C17.8476 13.5138 17.6207 13.4098 17.2992 13.4098C17.1322 13.4098 16.9604 13.435 16.7839 13.4855C16.6106 13.5359 16.4467 13.6099 16.2923 13.7076V17.0215C16.2923 17.0971 16.3112 17.157 16.349 17.2011C16.39 17.2452 16.4451 17.2783 16.5145 17.3004L16.9021 17.3902ZM22.8475 14.3269C22.8475 14.765 22.92 15.088 23.0649 15.296C23.2099 15.504 23.4337 15.608 23.7362 15.608C24.0293 15.608 24.2404 15.504 24.3697 15.296C24.502 15.0848 24.5682 14.7681 24.5682 14.3458C24.5682 13.8952 24.4989 13.5737 24.3602 13.3815C24.2247 13.1861 24.0088 13.0884 23.7126 13.0884C23.4478 13.0884 23.2367 13.1813 23.0791 13.3673C22.9247 13.5532 22.8475 13.8731 22.8475 14.3269ZM26.7097 18.4869C26.7097 18.8115 26.634 19.1046 26.4827 19.3662C26.3315 19.6309 26.1187 19.8547 25.8446 20.0375C25.5704 20.2202 25.2379 20.3605 24.8471 20.4582C24.4595 20.559 24.0293 20.6095 23.5566 20.6095C22.7372 20.6095 22.1368 20.4692 21.7555 20.1887C21.3773 19.9114 21.1882 19.5584 21.1882 19.1298C21.1882 18.8115 21.2812 18.5531 21.4671 18.3545C21.653 18.156 21.9004 17.9968 22.2093 17.8771C22.017 17.7888 21.8752 17.6707 21.7838 17.5225C21.6956 17.3744 21.6515 17.2058 21.6515 17.0167C21.6515 16.7709 21.7161 16.5661 21.8453 16.4022C21.9777 16.2383 22.1478 16.1075 22.3558 16.0098C22.0123 15.8648 21.7602 15.6537 21.5995 15.3764C21.4419 15.099 21.3631 14.7823 21.3631 14.4262C21.3631 13.799 21.5806 13.3184 22.0155 12.9844C22.4504 12.6472 23.046 12.4785 23.8024 12.4785C24.168 12.4785 24.4941 12.5211 24.7809 12.6062C25.0677 12.6913 25.3057 12.8158 25.4947 12.9796C25.624 12.8189 25.7658 12.6928 25.9202 12.6015C26.0778 12.5101 26.2369 12.4644 26.3977 12.4644C26.4796 12.4644 26.5663 12.4738 26.6577 12.4927C26.749 12.5116 26.8278 12.5321 26.894 12.5542V13.58H25.9013C25.9423 13.684 25.9722 13.7959 25.9911 13.9156C26.01 14.0322 26.0195 14.1567 26.0195 14.2891C26.0195 14.5759 25.9706 14.8406 25.8729 15.0833C25.7752 15.3228 25.6271 15.5276 25.4286 15.6978C25.2332 15.8648 24.9842 15.9956 24.6817 16.0902C24.3791 16.1847 24.0261 16.232 23.6227 16.232C23.4872 16.232 23.3564 16.2273 23.2304 16.2178C23.1075 16.2052 22.9909 16.1895 22.8806 16.1705C22.8238 16.2336 22.7813 16.3013 22.7529 16.3738C22.7277 16.4432 22.7151 16.5156 22.7151 16.5913C22.7151 16.7678 22.7939 16.8907 22.9515 16.96C23.1122 17.0293 23.3801 17.064 23.7551 17.064H24.7762C25.4033 17.064 25.8824 17.1838 26.2133 17.4233C26.5442 17.6596 26.7097 18.0142 26.7097 18.4869ZM23.8024 19.9145C24.2341 19.9145 24.5761 19.8168 24.8282 19.6215C25.0803 19.4292 25.2064 19.1456 25.2064 18.7705C25.2064 18.5247 25.1418 18.3451 25.0126 18.2316C24.8833 18.1182 24.6501 18.0615 24.3129 18.0615H23.2587C23.1894 18.0615 23.1201 18.0599 23.0507 18.0567C22.9846 18.0536 22.9215 18.0488 22.8617 18.0425C22.7829 18.1434 22.7183 18.2632 22.6678 18.4018C22.6206 18.5436 22.5969 18.7012 22.5969 18.8745C22.5969 19.1739 22.6852 19.4213 22.8617 19.6167C23.0413 19.8153 23.3549 19.9145 23.8024 19.9145ZM29.5657 17.2767C29.5657 17.5194 29.4869 17.7148 29.3294 17.8629C29.1718 18.011 28.9622 18.0851 28.7006 18.0851C28.4391 18.0851 28.2295 18.011 28.0719 17.8629C27.9143 17.7148 27.8355 17.5194 27.8355 17.2767C27.8355 17.0341 27.9143 16.8387 28.0719 16.6905C28.2295 16.5424 28.4391 16.4684 28.7006 16.4684C28.9622 16.4684 29.1718 16.5424 29.3294 16.6905C29.4869 16.8387 29.5657 17.0341 29.5657 17.2767Z" fill="white"/>
<defs>
<filter id="filter0_d" x="0" y="0" width="38" height="38" filterUnits="userSpaceOnUse" color-interpolation-filters="sRGB">
<feFlood flood-opacity="0" result="BackgroundImageFix"/>
<feColorMatrix in="SourceAlpha" type="matrix" values="0 0 0 0 0 0 0 0 0 0 0 0 0 0 0 0 0 0 127 0"/>
<feOffset dy="4"/>
<feGaussianBlur stdDeviation="2.5"/>
<feColorMatrix type="matrix" values="0 0 0 0 0 0 0 0 0 0 0 0 0 0 0 0 0 0 0.2 0"/>
<feBlend mode="normal" in2="BackgroundImageFix" result="effect1_dropShadow"/>
<feBlend mode="normal" in="SourceGraphic" in2="effect1_dropShadow" result="shape"/>
</filter>
</defs>
</svg>
