<svg width="1262" height="153" viewBox="0 0 1262 153" fill="none" xmlns="http://www.w3.org/2000/svg">
<path d="M1262 0C1262 78.7487 985.448 153 634.27 153C283.092 153 0 78.7487 0 0C298.336 41.2249 481.968 41.2249 634.27 41.2249C786.572 41.2249 987.64 41.2249 1262 0Z" fill="#434734"/>
<path d="M566.805 89.5382H563.439L562.418 86.04C562.33 85.7122 562.191 85.4538 562.002 85.2647C561.813 85.0756 561.58 84.9244 561.303 84.8109C560.987 84.6848 560.54 84.584 559.96 84.5084C559.38 84.4327 558.781 84.3949 558.164 84.3949H554.968V94.3222L563.099 94.0196V97.896L554.968 97.688V107.918H558.958C559.576 107.918 560.218 107.88 560.887 107.804C561.567 107.729 562.065 107.628 562.38 107.502C562.658 107.388 562.866 107.243 563.004 107.067C563.143 106.878 563.275 106.613 563.402 106.273L565.028 101.583L568.375 102.113C568.375 103.625 568.318 105.1 568.204 106.537C568.091 107.975 567.914 109.462 567.675 111H543.963V108.277L546.913 107.729C547.203 107.678 547.417 107.565 547.556 107.388C547.707 107.199 547.783 106.96 547.783 106.67V85.9644C547.783 85.6744 547.707 85.4412 547.556 85.2647C547.417 85.0756 547.203 84.9496 546.913 84.8865L543.963 84.3193V81.464H566.692C566.856 82.7876 566.944 84.1239 566.956 85.4727C566.969 86.809 566.919 88.1641 566.805 89.5382ZM582.639 108.334V111H573.109V108.334L575.038 107.975C575.277 107.924 575.485 107.848 575.662 107.748C575.838 107.634 576.002 107.489 576.153 107.313L581.58 100.657L575.832 93.1309C575.693 92.9292 575.536 92.7779 575.359 92.6771C575.195 92.5762 575 92.5006 574.773 92.4502L573.223 92.072V89.4815H585.589V92.0909L583.244 92.6771L586.383 97.2342L589.825 92.6771L587.688 92.0909V89.4815H596.348V92.0909L594.609 92.4502C594.382 92.5006 594.18 92.5762 594.004 92.6771C593.84 92.7779 593.676 92.9229 593.512 93.112L588.331 99.4276L594.382 107.313C594.52 107.514 594.678 107.666 594.855 107.767C595.031 107.867 595.239 107.943 595.479 107.993L597.029 108.334V111H584.814V108.334L586.951 107.767L583.641 102.926L580.03 107.767L582.639 108.334ZM613.188 108.788C613.856 108.788 614.467 108.649 615.022 108.372C615.576 108.082 616.043 107.609 616.421 106.953C616.812 106.298 617.114 105.422 617.329 104.325C617.556 103.228 617.675 101.873 617.688 100.26C617.7 97.625 617.385 95.7467 616.742 94.6247C616.1 93.4902 615.11 92.9229 613.774 92.9229C613.232 92.9229 612.721 92.9859 612.242 93.112C611.763 93.2381 611.347 93.4019 610.994 93.6036V108.372C611.322 108.536 611.675 108.649 612.053 108.712C612.431 108.762 612.809 108.788 613.188 108.788ZM614.833 117.694V120.379H601.237V117.694L603.298 117.297C603.575 117.246 603.79 117.127 603.941 116.937C604.092 116.761 604.168 116.528 604.168 116.238V94.4167C604.168 94.1394 604.099 93.8999 603.96 93.6982C603.834 93.4965 603.638 93.3704 603.374 93.32L601.029 92.8284V90.0487C601.647 89.8975 602.308 89.7525 603.014 89.6138C603.72 89.4752 604.433 89.3617 605.151 89.2735C605.882 89.1726 606.601 89.097 607.307 89.0465C608.025 88.9835 608.693 88.952 609.311 88.952L610.257 89.8029L610.635 91.656C611.379 90.8366 612.261 90.1748 613.282 89.6705C614.303 89.1663 615.488 88.9142 616.837 88.9142C617.972 88.9142 619.03 89.1222 620.014 89.5382C621.01 89.9416 621.86 90.5656 622.566 91.4102C623.285 92.2422 623.846 93.3074 624.249 94.6058C624.665 95.9042 624.873 97.4359 624.873 99.2007C624.873 101.18 624.596 102.938 624.041 104.476C623.499 106.002 622.718 107.281 621.697 108.315C620.688 109.336 619.459 110.111 618.009 110.641C616.572 111.17 614.971 111.435 613.206 111.435C612.866 111.435 612.507 111.416 612.129 111.378C611.763 111.353 611.385 111.309 610.994 111.246V116.238C610.994 116.54 611.07 116.78 611.221 116.956C611.385 117.145 611.612 117.259 611.902 117.297L614.833 117.694ZM639.677 77.8145V106.859C639.677 107.161 639.752 107.401 639.904 107.577C640.055 107.754 640.275 107.867 640.565 107.918L642.835 108.315V111H629.674V108.296L631.962 107.918C632.239 107.867 632.453 107.754 632.605 107.577C632.769 107.401 632.851 107.168 632.851 106.878V82.2771C632.851 81.9872 632.775 81.7539 632.624 81.5775C632.472 81.3884 632.258 81.2686 631.981 81.2182L629.504 80.84V78.1738C630.184 77.9973 630.922 77.8398 631.716 77.7011C632.51 77.5498 633.311 77.4238 634.117 77.3229C634.937 77.2095 635.744 77.1212 636.538 77.0582C637.345 76.9952 638.088 76.9636 638.769 76.9636L639.677 77.8145ZM647.802 100.449C647.802 98.3435 648.085 96.5535 648.652 95.0785C649.232 93.6036 650.02 92.4124 651.016 91.5047C652.012 90.5971 653.197 89.9416 654.571 89.5382C655.945 89.1222 657.42 88.9142 658.996 88.9142C662.299 88.9142 664.889 89.8155 666.767 91.6182C668.646 93.4208 669.585 96.2068 669.585 99.976C669.585 102.094 669.295 103.89 668.715 105.365C668.148 106.84 667.366 108.031 666.37 108.939C665.374 109.834 664.189 110.483 662.815 110.887C661.454 111.29 659.979 111.492 658.391 111.492C655.1 111.492 652.51 110.59 650.619 108.788C648.741 106.985 647.802 104.205 647.802 100.449ZM662.229 100.487C662.229 97.3224 661.971 95.0785 661.454 93.7549C660.95 92.4313 660.004 91.7695 658.618 91.7695C657.47 91.7695 656.607 92.3682 656.027 93.5658C655.46 94.7508 655.176 96.8749 655.176 99.9382C655.176 103.102 655.428 105.346 655.932 106.67C656.449 107.993 657.401 108.655 658.788 108.655C659.935 108.655 660.792 108.056 661.359 106.859C661.939 105.661 662.229 103.537 662.229 100.487ZM689.145 108.315V111H675.265V108.296L677.308 107.918C677.585 107.867 677.799 107.754 677.951 107.577C678.114 107.388 678.196 107.149 678.196 106.859V94.4167C678.196 94.1268 678.127 93.881 677.988 93.6793C677.85 93.4776 677.642 93.3515 677.364 93.3011L675.057 92.8284V90.0487C676.268 89.6958 677.572 89.431 678.972 89.2545C680.371 89.0655 681.669 88.9646 682.867 88.952L683.926 89.784L684.644 93.5469C685.489 92.1098 686.466 90.9816 687.575 90.1622C688.685 89.3302 689.844 88.9142 691.055 88.9142C691.483 88.9142 692.013 88.9772 692.643 89.1033C693.273 89.2167 693.746 89.3554 694.061 89.5193C694.137 90.0613 694.181 90.6727 694.193 91.3535C694.206 92.0216 694.187 92.7212 694.137 93.4524C694.086 94.1709 694.011 94.9084 693.91 95.6647C693.809 96.4211 693.677 97.1522 693.513 97.8582H690.525L689.863 95.6458C689.712 95.1794 689.523 94.8768 689.296 94.7382C689.082 94.5995 688.76 94.5302 688.332 94.5302C687.89 94.5176 687.374 94.6121 686.781 94.8138C686.189 95.0029 685.602 95.337 685.023 95.816V106.859C685.023 107.161 685.098 107.407 685.249 107.596C685.413 107.773 685.647 107.88 685.949 107.918L689.145 108.315ZM709.106 91.7316C708.261 91.7316 707.562 92.1035 707.007 92.8473C706.465 93.5784 706.118 94.8895 705.967 96.7804H711.961C711.974 96.6669 711.98 96.5408 711.98 96.4022C711.98 96.2509 711.98 96.087 711.98 95.9105C711.98 94.7004 711.747 93.7045 711.28 92.9229C710.826 92.1287 710.102 91.7316 709.106 91.7316ZM718.031 106.292C717.527 107.981 716.468 109.273 714.854 110.168C713.241 111.05 711.306 111.492 709.049 111.492C707.309 111.492 705.797 111.233 704.511 110.716C703.225 110.2 702.166 109.462 701.334 108.504C700.502 107.546 699.884 106.38 699.481 105.006C699.078 103.632 698.876 102.1 698.876 100.411C698.876 96.6795 699.809 93.8368 701.674 91.8829C703.54 89.9164 706.175 88.9331 709.578 88.9331C711.079 88.9331 712.377 89.1159 713.474 89.4815C714.57 89.847 715.466 90.3576 716.159 91.0131C716.852 91.656 717.363 92.4313 717.69 93.3389C718.031 94.2339 718.201 95.2046 718.201 96.2509C718.201 96.7299 718.17 97.2531 718.106 97.8204C718.043 98.375 717.968 98.873 717.88 99.3142H705.872C705.885 102.088 706.269 104.117 707.026 105.403C707.782 106.676 709.15 107.313 711.129 107.313C712.163 107.313 713.165 107.136 714.136 106.783C715.119 106.43 715.926 105.901 716.556 105.195L718.031 106.292Z" fill="#E8E2DD"/>
</svg>
