<svg width="38" height="38" viewBox="0 0 38 38" fill="none" xmlns="http://www.w3.org/2000/svg">
<g filter="url(#filter0_d)">
<path fill-rule="evenodd" clip-rule="evenodd" d="M33 15C33 7.26801 26.732 1 19 1C11.268 1 5 7.26801 5 15C5 22.732 11.268 29 19 29C19.2437 29 19.486 28.9938 19.7266 28.9815C19.816 28.9937 19.9073 29 20 29H31C32.1046 29 33 28.1046 33 27V15Z" fill="#EA6161"/>
</g>
<path d="M12.5872 17.3949V18H9.24979V17.3902L9.78397 17.2956C9.85961 17.283 9.91791 17.2547 9.95888 17.2105C9.99985 17.1633 10.0203 17.1002 10.0203 17.0215V13.7833C10.0203 13.7045 10.0014 13.6399 9.96361 13.5895C9.92894 13.5359 9.87221 13.5028 9.79342 13.4902L9.19306 13.3767V12.7622C9.4767 12.6771 9.78397 12.6125 10.1149 12.5684C10.4458 12.5211 10.7515 12.4959 11.032 12.4927L11.2636 12.6818L11.4196 13.5989C11.6276 13.2712 11.8782 13.0033 12.1712 12.7953C12.4643 12.5841 12.7685 12.4785 13.0836 12.4785C13.1845 12.4785 13.3089 12.4927 13.4571 12.5211C13.6052 12.5463 13.7186 12.5794 13.7974 12.6204C13.8132 12.7559 13.8211 12.9056 13.8211 13.0695C13.8242 13.2333 13.8195 13.4019 13.8069 13.5753C13.7974 13.7486 13.7801 13.9251 13.7549 14.1047C13.7328 14.2844 13.7045 14.4545 13.6698 14.6153H13.0032L12.8472 14.0007C12.8157 13.8904 12.7732 13.8164 12.7196 13.7785C12.666 13.7407 12.5888 13.7218 12.488 13.7218C12.3398 13.7187 12.1775 13.7486 12.0011 13.8116C11.8277 13.8747 11.6591 13.9787 11.4952 14.1236V17.0215C11.4952 17.1002 11.5157 17.1633 11.5567 17.2105C11.5977 17.2578 11.6575 17.2862 11.7363 17.2956L12.5872 17.3949ZM17.1155 13.1262C16.8602 13.1262 16.6491 13.227 16.482 13.4287C16.3181 13.6304 16.2126 13.9739 16.1653 14.4593H17.9569C17.9601 14.4278 17.9617 14.3947 17.9617 14.36C17.9617 14.3253 17.9617 14.2859 17.9617 14.2418C17.9617 13.9172 17.8908 13.6509 17.7489 13.4429C17.6103 13.2318 17.3991 13.1262 17.1155 13.1262ZM19.3042 16.8229C19.1781 17.2326 18.9197 17.5509 18.5289 17.7778C18.1381 18.0047 17.6638 18.1182 17.106 18.1182C16.6806 18.1182 16.3103 18.052 15.9951 17.9196C15.6831 17.7873 15.4247 17.6013 15.2198 17.3618C15.015 17.1223 14.8621 16.8324 14.7613 16.492C14.6636 16.1516 14.6148 15.7735 14.6148 15.3575C14.6148 14.4341 14.8464 13.725 15.3097 13.2302C15.7761 12.7322 16.419 12.4833 17.2384 12.4833C17.9349 12.4833 18.458 12.6519 18.8078 12.9891C19.1608 13.3263 19.3373 13.7707 19.3373 14.3222C19.3373 14.4293 19.331 14.5507 19.3184 14.6862C19.3058 14.8217 19.2884 14.943 19.2664 15.0502H16.1369V15.0833C16.1369 15.8333 16.2504 16.3722 16.4773 16.7C16.7042 17.0246 17.0603 17.1869 17.5457 17.1869C17.8198 17.1869 18.0814 17.1349 18.3304 17.0309C18.5825 16.9269 18.7874 16.7756 18.9449 16.5771L19.3042 16.8229ZM20.3957 15.3527C20.3957 14.8359 20.465 14.3947 20.6037 14.0291C20.7455 13.6604 20.9378 13.3625 21.1804 13.1356C21.4262 12.9087 21.7162 12.7433 22.0502 12.6393C22.3843 12.5321 22.742 12.4785 23.1233 12.4785C23.9522 12.4785 24.5888 12.7149 25.0331 13.1876C25.4775 13.6572 25.6997 14.3458 25.6997 15.2535C25.6997 15.7703 25.6288 16.2115 25.487 16.5771C25.3483 16.9427 25.1561 17.2389 24.9102 17.4658C24.6676 17.6927 24.3792 17.8582 24.0451 17.9622C23.7111 18.0662 23.3518 18.1182 22.9673 18.1182C22.1385 18.1182 21.5019 17.8834 21.0575 17.4138C20.6163 16.9442 20.3957 16.2572 20.3957 15.3527ZM24.0971 15.3669C24.0971 14.6011 24.0199 14.0385 23.8655 13.6793C23.7142 13.3168 23.4322 13.1356 23.0193 13.1356C22.6758 13.1356 22.419 13.2932 22.2488 13.6084C22.0786 13.9235 21.9935 14.4656 21.9935 15.2345C21.9935 15.9972 22.0691 16.5598 22.2204 16.9222C22.3748 17.2846 22.6601 17.4658 23.0761 17.4658C23.4196 17.4658 23.6748 17.3082 23.8419 16.9931C24.0121 16.6748 24.0971 16.1327 24.0971 15.3669ZM28.5818 17.2767C28.5818 17.5194 28.503 17.7148 28.3455 17.8629C28.1879 18.011 27.9783 18.0851 27.7167 18.0851C27.4552 18.0851 27.2456 18.011 27.088 17.8629C26.9304 17.7148 26.8516 17.5194 26.8516 17.2767C26.8516 17.0341 26.9304 16.8387 27.088 16.6905C27.2456 16.5424 27.4552 16.4684 27.7167 16.4684C27.9783 16.4684 28.1879 16.5424 28.3455 16.6905C28.503 16.8387 28.5818 17.0341 28.5818 17.2767Z" fill="white"/>
<defs>
<filter id="filter0_d" x="0" y="0" width="38" height="38" filterUnits="userSpaceOnUse" color-interpolation-filters="sRGB">
<feFlood flood-opacity="0" result="BackgroundImageFix"/>
<feColorMatrix in="SourceAlpha" type="matrix" values="0 0 0 0 0 0 0 0 0 0 0 0 0 0 0 0 0 0 127 0"/>
<feOffset dy="4"/>
<feGaussianBlur stdDeviation="2.5"/>
<feColorMatrix type="matrix" values="0 0 0 0 0 0 0 0 0 0 0 0 0 0 0 0 0 0 0.2 0"/>
<feBlend mode="normal" in2="BackgroundImageFix" result="effect1_dropShadow"/>
<feBlend mode="normal" in="SourceGraphic" in2="effect1_dropShadow" result="shape"/>
</filter>
</defs>
</svg>
